<svg width="31" height="31" viewBox="0 0 31 31" fill="none" xmlns="http://www.w3.org/2000/svg">
<g clip-path="url(#clip0_37_627)">
<ellipse cx="15.125" cy="15" rx="13.5" ry="13" fill="#0035A3"/>
<path fill-rule="evenodd" clip-rule="evenodd" d="M30.25 15.125C30.25 23.4783 23.4783 30.25 15.125 30.25C6.77171 30.25 0 23.4783 0 15.125C0 6.77171 6.77171 0 15.125 0C23.4783 0 30.25 6.77171 30.25 15.125ZM10.1284 13.7395C8.61325 14.401 7.05651 15.0808 5.63296 15.8649C4.88964 16.4091 5.87756 16.7941 6.80442 17.1552C6.95177 17.2126 7.09753 17.2694 7.2346 17.3261C7.34867 17.3612 7.46463 17.3982 7.58216 17.4356C8.61299 17.764 9.76237 18.1302 10.7631 17.5793C12.4071 16.635 13.9585 15.5432 15.5087 14.4523C16.0166 14.0948 16.5244 13.7375 17.0352 13.3854C17.0592 13.3701 17.0861 13.3526 17.1157 13.3335C17.5509 13.0514 18.5296 12.4169 18.1676 13.2912C17.3115 14.2274 16.3945 15.0561 15.4726 15.8894C14.8512 16.451 14.2275 17.0147 13.6187 17.6146C13.0885 18.0454 12.5379 18.9118 13.1317 19.5151C14.4991 20.4724 15.888 21.4065 17.276 22.3401C17.7277 22.6438 18.1794 22.9476 18.6301 23.2521C19.394 23.862 20.588 23.3686 20.7559 22.4156C20.8306 21.9771 20.9056 21.5388 20.9806 21.1003C21.395 18.6774 21.8096 16.2535 22.1758 13.8227C22.2256 13.4413 22.282 13.0601 22.3384 12.6786C22.4752 11.754 22.6123 10.8283 22.655 9.89874C22.5448 8.97108 21.42 9.17508 20.794 9.38368C17.5767 10.6079 14.3915 11.9229 11.2189 13.2611C10.8595 13.4203 10.4952 13.5794 10.1284 13.7395Z" fill="white"/>
</g>
<defs>
<clipPath id="clip0_37_627">
<rect width="30.25" height="30.25" fill="white"/>
</clipPath>
</defs>
</svg>
