<svg width="40" height="40" viewBox="0 0 40 40" fill="none" xmlns="http://www.w3.org/2000/svg">
<path d="M16.3586 20C16.3586 17.9894 17.989 16.3591 20.0008 16.3591C22.0125 16.3591 23.6438 17.9894 23.6438 20C23.6438 22.0105 22.0125 23.6408 20.0008 23.6408C17.989 23.6408 16.3586 22.0105 16.3586 20ZM14.3893 20C14.3893 23.0973 16.9015 25.6081 20.0008 25.6081C23.1 25.6081 25.6122 23.0973 25.6122 20C25.6122 16.9026 23.1 14.3919 20.0008 14.3919C16.9015 14.3919 14.3893 16.9026 14.3893 20ZM24.523 14.1695C24.5229 14.4287 24.5997 14.6821 24.7437 14.8977C24.8877 15.1133 25.0925 15.2813 25.3321 15.3806C25.5716 15.4799 25.8353 15.506 26.0897 15.4555C26.3441 15.4051 26.5778 15.2803 26.7613 15.0971C26.9448 14.9139 27.0698 14.6804 27.1205 14.4262C27.1712 14.172 27.1453 13.9085 27.0461 13.669C26.947 13.4294 26.779 13.2247 26.5634 13.0806C26.3478 12.9365 26.0943 12.8595 25.8349 12.8594H25.8344C25.4867 12.8596 25.1533 12.9976 24.9075 13.2433C24.6616 13.4889 24.5233 13.822 24.523 14.1695ZM15.5858 28.8899C14.5204 28.8414 13.9412 28.664 13.5564 28.5142C13.0462 28.3156 12.6822 28.0792 12.2994 27.6972C11.9167 27.3152 11.6797 26.9518 11.482 26.4419C11.332 26.0574 11.1545 25.4785 11.1061 24.4137C11.0531 23.2624 11.0425 22.9166 11.0425 20C11.0425 17.0835 11.0539 16.7386 11.1061 15.5864C11.1546 14.5216 11.3334 13.9438 11.482 13.5582C11.6806 13.0483 11.9172 12.6845 12.2994 12.302C12.6816 11.9195 13.0453 11.6827 13.5564 11.485C13.9411 11.3351 14.5204 11.1578 15.5858 11.1093C16.7377 11.0564 17.0837 11.0458 20.0008 11.0458C22.9178 11.0458 23.2642 11.0573 24.417 11.1093C25.4825 11.1578 26.0606 11.3365 26.4464 11.485C26.9567 11.6827 27.3207 11.92 27.7034 12.302C28.0862 12.684 28.3222 13.0483 28.5209 13.5582C28.6709 13.9427 28.8484 14.5216 28.8968 15.5864C28.9498 16.7386 28.9604 17.0835 28.9604 20C28.9604 22.9166 28.9498 23.2615 28.8968 24.4137C28.8483 25.4785 28.6699 26.0572 28.5209 26.4419C28.3222 26.9518 28.0857 27.3156 27.7034 27.6972C27.3212 28.0789 26.9567 28.3156 26.4464 28.5142C26.0618 28.6641 25.4825 28.8415 24.417 28.8899C23.2651 28.9428 22.9191 28.9534 20.0008 28.9534C17.0824 28.9534 16.7374 28.9428 15.5858 28.8899ZM15.4953 9.14451C14.332 9.19746 13.537 9.38181 12.8428 9.6518C12.1238 9.9306 11.5151 10.3046 10.9069 10.9115C10.2987 11.5184 9.92538 12.1277 9.6464 12.8462C9.37626 13.5405 9.19179 14.3345 9.13881 15.4972C9.08496 16.6617 9.07263 17.034 9.07263 20C9.07263 22.9659 9.08496 23.3382 9.13881 24.5027C9.19179 25.6655 9.37626 26.4594 9.6464 27.1537C9.92538 27.8718 10.2988 28.4817 10.9069 29.0884C11.515 29.695 12.1238 30.0685 12.8428 30.3481C13.5383 30.6181 14.332 30.8024 15.4953 30.8554C16.6611 30.9083 17.033 30.9215 20.0008 30.9215C22.9685 30.9215 23.341 30.9092 24.5062 30.8554C25.6697 30.8024 26.4641 30.6181 27.1588 30.3481C27.8773 30.0685 28.4864 29.6953 29.0946 29.0884C29.7029 28.4815 30.0754 27.8718 30.3551 27.1537C30.6253 26.4594 30.8106 25.6654 30.8627 24.5027C30.9157 23.3373 30.928 22.9659 30.928 20C30.928 17.034 30.9157 16.6617 30.8627 15.4972C30.8097 14.3344 30.6253 13.5401 30.3551 12.8462C30.0754 12.1281 29.7019 11.5194 29.0946 10.9115C28.4874 10.3037 27.8773 9.9306 27.1597 9.6518C26.4641 9.38181 25.6696 9.19658 24.5071 9.14451C23.3419 9.09156 22.9694 9.07837 20.0016 9.07837C17.0339 9.07837 16.6611 9.09069 15.4953 9.14451Z" fill="white"/>
<path d="M16.3586 20C16.3586 17.9894 17.989 16.3591 20.0008 16.3591C22.0125 16.3591 23.6438 17.9894 23.6438 20C23.6438 22.0105 22.0125 23.6408 20.0008 23.6408C17.989 23.6408 16.3586 22.0105 16.3586 20ZM14.3893 20C14.3893 23.0973 16.9015 25.6081 20.0008 25.6081C23.1 25.6081 25.6122 23.0973 25.6122 20C25.6122 16.9026 23.1 14.3919 20.0008 14.3919C16.9015 14.3919 14.3893 16.9026 14.3893 20ZM24.523 14.1695C24.5229 14.4287 24.5997 14.6821 24.7437 14.8977C24.8877 15.1133 25.0925 15.2813 25.3321 15.3806C25.5716 15.4799 25.8353 15.506 26.0897 15.4555C26.3441 15.4051 26.5778 15.2803 26.7613 15.0971C26.9448 14.9139 27.0698 14.6804 27.1205 14.4262C27.1712 14.172 27.1453 13.9085 27.0461 13.669C26.947 13.4294 26.779 13.2247 26.5634 13.0806C26.3478 12.9365 26.0943 12.8595 25.8349 12.8594H25.8344C25.4867 12.8596 25.1533 12.9976 24.9075 13.2433C24.6616 13.4889 24.5233 13.822 24.523 14.1695ZM15.5858 28.8899C14.5204 28.8414 13.9412 28.664 13.5564 28.5142C13.0462 28.3156 12.6822 28.0792 12.2994 27.6972C11.9167 27.3152 11.6797 26.9518 11.482 26.4419C11.332 26.0574 11.1545 25.4785 11.1061 24.4137C11.0531 23.2624 11.0425 22.9166 11.0425 20C11.0425 17.0835 11.0539 16.7386 11.1061 15.5864C11.1546 14.5216 11.3334 13.9438 11.482 13.5582C11.6806 13.0483 11.9172 12.6845 12.2994 12.302C12.6816 11.9195 13.0453 11.6827 13.5564 11.485C13.9411 11.3351 14.5204 11.1578 15.5858 11.1093C16.7377 11.0564 17.0837 11.0458 20.0008 11.0458C22.9178 11.0458 23.2642 11.0573 24.417 11.1093C25.4825 11.1578 26.0606 11.3365 26.4464 11.485C26.9567 11.6827 27.3207 11.92 27.7034 12.302C28.0862 12.684 28.3222 13.0483 28.5209 13.5582C28.6709 13.9427 28.8484 14.5216 28.8968 15.5864C28.9498 16.7386 28.9604 17.0835 28.9604 20C28.9604 22.9166 28.9498 23.2615 28.8968 24.4137C28.8483 25.4785 28.6699 26.0572 28.5209 26.4419C28.3222 26.9518 28.0857 27.3156 27.7034 27.6972C27.3212 28.0789 26.9567 28.3156 26.4464 28.5142C26.0618 28.6641 25.4825 28.8415 24.417 28.8899C23.2651 28.9428 22.9191 28.9534 20.0008 28.9534C17.0824 28.9534 16.7374 28.9428 15.5858 28.8899ZM15.4953 9.14451C14.332 9.19746 13.537 9.38181 12.8428 9.6518C12.1238 9.9306 11.5151 10.3046 10.9069 10.9115C10.2987 11.5184 9.92538 12.1277 9.6464 12.8462C9.37626 13.5405 9.19179 14.3345 9.13881 15.4972C9.08496 16.6617 9.07263 17.034 9.07263 20C9.07263 22.9659 9.08496 23.3382 9.13881 24.5027C9.19179 25.6655 9.37626 26.4594 9.6464 27.1537C9.92538 27.8718 10.2988 28.4817 10.9069 29.0884C11.515 29.695 12.1238 30.0685 12.8428 30.3481C13.5383 30.6181 14.332 30.8024 15.4953 30.8554C16.6611 30.9083 17.033 30.9215 20.0008 30.9215C22.9685 30.9215 23.341 30.9092 24.5062 30.8554C25.6697 30.8024 26.4641 30.6181 27.1588 30.3481C27.8773 30.0685 28.4864 29.6953 29.0946 29.0884C29.7029 28.4815 30.0754 27.8718 30.3551 27.1537C30.6253 26.4594 30.8106 25.6654 30.8627 24.5027C30.9157 23.3373 30.928 22.9659 30.928 20C30.928 17.034 30.9157 16.6617 30.8627 15.4972C30.8097 14.3344 30.6253 13.5401 30.3551 12.8462C30.0754 12.1281 29.7019 11.5194 29.0946 10.9115C28.4874 10.3037 27.8773 9.9306 27.1597 9.6518C26.4641 9.38181 25.6696 9.19658 24.5071 9.14451C23.3419 9.09156 22.9694 9.07837 20.0016 9.07837C17.0339 9.07837 16.6611 9.09069 15.4953 9.14451Z" fill="white"/>
</svg>
