<svg width="40" height="40" viewBox="0 0 40 40" fill="none" xmlns="http://www.w3.org/2000/svg">
<path fill-rule="evenodd" clip-rule="evenodd" d="M29.1086 12.4764C30.0915 12.7418 30.8641 13.5164 31.1253 14.4982C31.6004 16.28 31.6004 20 31.6004 20C31.6004 20 31.6004 23.72 31.1253 25.5018C30.8605 26.4873 30.0879 27.2618 29.1086 27.5236C27.3313 28 20.2004 28 20.2004 28C20.2004 28 13.0731 28 11.2922 27.5236C10.3093 27.2582 9.53672 26.4836 9.27557 25.5018C8.80042 23.72 8.80042 20 8.80042 20C8.80042 20 8.80042 16.28 9.27557 14.4982C9.54035 13.5127 10.3129 12.7382 11.2922 12.4764C13.0731 12 20.2004 12 20.2004 12C20.2004 12 27.3313 12 29.1086 12.4764ZM23.8457 20L17.9226 23.4291V16.5709L23.8457 20Z" fill="white"/>
</svg>
