<svg width="40" height="40" viewBox="0 0 40 40" fill="none" xmlns="http://www.w3.org/2000/svg">
<path d="M30.1178 13.6063C29.4573 13.8906 28.763 14.0885 28.0519 14.1952C28.3844 14.1382 28.8735 13.5398 29.0682 13.2976C29.3641 12.9323 29.5895 12.5152 29.7331 12.0676C29.7331 12.0344 29.7664 11.9869 29.7331 11.9631C29.7164 11.954 29.6976 11.9492 29.6785 11.9492C29.6594 11.9492 29.6406 11.954 29.6239 11.9631C28.8518 12.3812 28.03 12.7004 27.1781 12.9129C27.1484 12.922 27.1168 12.9228 27.0867 12.9153C27.0566 12.9078 27.0291 12.8922 27.0071 12.8702C26.9408 12.7912 26.8694 12.7167 26.7934 12.647C26.4459 12.3357 26.0517 12.0809 25.6251 11.8919C25.0493 11.6557 24.4274 11.5533 23.8062 11.5927C23.2035 11.6308 22.6151 11.7924 22.0775 12.0676C21.5482 12.3577 21.083 12.7519 20.7098 13.2264C20.3173 13.7148 20.0339 14.2815 19.8787 14.8886C19.7507 15.466 19.7362 16.0628 19.836 16.6458C19.836 16.7455 19.836 16.7597 19.7505 16.7455C16.3644 16.2468 13.5861 15.0453 11.316 12.4665C11.2163 12.3525 11.1641 12.3525 11.0833 12.4665C10.0955 13.9672 10.5752 16.3418 11.8099 17.5148C11.9762 17.6716 12.1471 17.8235 12.3276 17.966C11.7615 17.9258 11.2092 17.7724 10.7034 17.5148C10.6084 17.4531 10.5562 17.4863 10.5514 17.6003C10.538 17.7583 10.538 17.9172 10.5514 18.0752C10.6505 18.8325 10.949 19.5499 11.4162 20.154C11.8835 20.7582 12.5029 21.2273 13.2109 21.5136C13.3835 21.5875 13.5634 21.6432 13.7476 21.6798C13.2235 21.783 12.686 21.799 12.1566 21.7273C12.0427 21.7036 11.9999 21.7653 12.0427 21.8745C12.7408 23.7742 14.2557 24.3536 15.367 24.6765C15.519 24.7003 15.671 24.7003 15.8419 24.7383C15.8419 24.7383 15.8419 24.7383 15.8135 24.7667C15.4858 25.3651 14.1608 25.7688 13.5529 25.9778C12.4433 26.3763 11.2603 26.5286 10.086 26.4242C9.9008 26.3957 9.85806 26.4004 9.81057 26.4242C9.76308 26.4479 9.81057 26.5002 9.86281 26.5477C10.1003 26.7044 10.3377 26.8421 10.5847 26.9751C11.3199 27.3761 12.0971 27.6946 12.9022 27.9249C17.072 29.0742 21.7641 28.2289 24.8938 25.1182C27.3538 22.6771 28.2182 19.31 28.2182 15.9381C28.2182 15.8099 28.3749 15.7339 28.4651 15.6674C29.0875 15.1825 29.6362 14.6098 30.0941 13.9672C30.1733 13.8715 30.214 13.7495 30.208 13.6253C30.208 13.5541 30.208 13.5683 30.1178 13.6063Z" fill="white"/>
</svg>
