<svg width="31" height="31" viewBox="0 0 31 31" fill="none" xmlns="http://www.w3.org/2000/svg">
<g clip-path="url(#clip0_37_619)">
<circle cx="15.25" cy="15" r="14" fill="#0035A3"/>
<path fill-rule="evenodd" clip-rule="evenodd" d="M15.375 30.25C7.02171 30.25 0.25 23.4783 0.25 15.125C0.25 6.77171 7.02171 0 15.375 0C23.7283 0 30.5 6.77171 30.5 15.125C30.5 23.4783 23.7283 30.25 15.375 30.25ZM15.8736 23.5399C20.8323 23.5378 24.8653 19.5039 24.8673 14.5462C24.8683 12.143 23.9336 9.88343 22.2356 8.18351C20.5375 6.48352 18.2794 5.54687 15.8734 5.54583C10.9161 5.54583 6.88156 9.58024 6.87954 14.539C6.87891 16.1242 7.29302 17.6714 8.08009 19.0353L6.80417 23.6958L11.5719 22.4452C12.8856 23.1617 14.3646 23.5394 15.8698 23.5399H15.8736Z" fill="white"/>
<path fill-rule="evenodd" clip-rule="evenodd" d="M11.7922 20.817L8.96295 21.5592L9.71813 18.8007L9.54041 18.5178C8.7921 17.3277 8.39689 15.9521 8.39746 14.5397C8.3991 10.4181 11.7525 7.06494 15.8759 7.06494C17.8725 7.06563 19.7494 7.84419 21.1608 9.25718C22.5721 10.6702 23.3489 12.5483 23.3481 14.5457C23.3464 18.6676 19.9931 22.021 15.8729 22.021H15.8699C14.5285 22.0205 13.2129 21.6601 12.0651 20.9791L11.7922 20.817ZM20.4039 16.6849C20.3478 16.5912 20.198 16.535 19.9733 16.4224C19.7485 16.3099 18.6437 15.7664 18.4377 15.6913C18.2317 15.6163 18.0818 15.5789 17.9321 15.8037C17.7823 16.0287 17.3516 16.535 17.2205 16.6849C17.0894 16.8349 16.9583 16.8537 16.7337 16.7412C16.5089 16.6287 15.7848 16.3914 14.9265 15.6258C14.2584 15.0298 13.8074 14.294 13.6763 14.069C13.5452 13.844 13.6623 13.7224 13.7748 13.6103C13.8759 13.5096 13.9996 13.3478 14.1119 13.2167C14.2243 13.0854 14.2617 12.9917 14.3366 12.8418C14.4115 12.6918 14.3741 12.5605 14.3179 12.4481C14.2617 12.3356 13.8123 11.2294 13.625 10.7795C13.4426 10.3413 13.2574 10.4006 13.1194 10.3937C12.9885 10.3871 12.8385 10.3858 12.6887 10.3858C12.5389 10.3858 12.2954 10.442 12.0895 10.667C11.8835 10.8919 11.3029 11.4356 11.3029 12.5417C11.3029 13.6478 12.1082 14.7164 12.2206 14.8664C12.3329 15.0164 13.8052 17.2862 16.0595 18.2596C16.5957 18.4912 17.0142 18.6295 17.3406 18.733C17.8789 18.9041 18.3689 18.88 18.756 18.822C19.1878 18.7576 20.0856 18.2785 20.2729 17.7536C20.4601 17.2286 20.4601 16.7786 20.4039 16.6849Z" fill="white"/>
</g>
<defs>
<clipPath id="clip0_37_619">
<rect width="30.25" height="30.25" fill="white" transform="translate(0.25)"/>
</clipPath>
</defs>
</svg>
