<svg width="31" height="31" viewBox="0 0 31 31" fill="none" xmlns="http://www.w3.org/2000/svg">
<g clip-path="url(#clip0_37_623)">
<circle cx="15.75" cy="15" r="14" fill="#0035A3"/>
<path fill-rule="evenodd" clip-rule="evenodd" d="M15.625 30.25C7.27171 30.25 0.5 23.4783 0.5 15.125C0.5 6.77171 7.27171 0 15.625 0C23.9783 0 30.75 6.77171 30.75 15.125C30.75 23.4783 23.9783 30.25 15.625 30.25ZM23.2278 16.8377C23.3445 16.3121 23.4052 15.7679 23.4052 15.2087C23.4052 11.0194 19.9609 7.62218 15.7104 7.62218C15.2626 7.62218 14.8234 7.66056 14.3947 7.73348C13.707 7.30613 12.8931 7.05833 12.0213 7.05833C9.55603 7.05833 7.55833 9.02767 7.55833 11.459C7.55833 12.2706 7.78218 13.0299 8.17108 13.6845C8.06962 14.1763 8.01555 14.6869 8.01555 15.2087C8.01555 19.3998 11.4608 22.7961 15.7104 22.7961C16.1923 22.7961 16.6628 22.7522 17.12 22.669C17.7489 23.0018 18.466 23.1917 19.2296 23.1917C21.694 23.1917 23.6917 21.2214 23.6917 18.792C23.6917 18.0898 23.5247 17.4268 23.2278 16.8377Z" fill="white"/>
<path fill-rule="evenodd" clip-rule="evenodd" d="M19.6568 18.835C19.3011 19.3325 18.7756 19.7252 18.0926 20.0039C17.4182 20.2807 16.61 20.4219 15.6889 20.4219C14.5839 20.4219 13.6571 20.2302 12.9333 19.8515C12.4164 19.5766 11.9905 19.2044 11.667 18.7424C11.3397 18.2786 11.1747 17.8176 11.1747 17.3716C11.1747 17.0948 11.2828 16.8535 11.4953 16.6562C11.7059 16.4599 11.9762 16.3617 12.2987 16.3617C12.5625 16.3617 12.791 16.4393 12.976 16.5936C13.1534 16.7423 13.3052 16.962 13.4276 17.2435C13.5641 17.5521 13.7121 17.812 13.8686 18.0149C14.0204 18.2132 14.2376 18.3787 14.5146 18.5087C14.7935 18.6377 15.1701 18.705 15.632 18.705C16.2685 18.705 16.7902 18.5704 17.182 18.3067C17.5662 18.0495 17.7521 17.7391 17.7521 17.3594C17.7521 17.0611 17.6544 16.8254 17.4552 16.6404C17.2446 16.4477 16.9686 16.2981 16.6337 16.1933C16.2837 16.0867 15.8094 15.9699 15.2223 15.8483C14.4226 15.68 13.7444 15.4808 13.2056 15.2536C12.6535 15.0226 12.2086 14.7018 11.8833 14.3007C11.5532 13.8921 11.3853 13.3805 11.3853 12.7793C11.3853 12.207 11.5607 11.6899 11.9079 11.2448C12.2513 10.8025 12.754 10.4565 13.402 10.2218C14.0403 9.98894 14.7992 9.87109 15.6596 9.87109C16.3463 9.87109 16.9505 9.94968 17.4552 10.1049C17.9627 10.2601 18.3896 10.4696 18.7253 10.7286C19.0639 10.9904 19.3163 11.2681 19.4738 11.558C19.6331 11.8507 19.7147 12.1415 19.7147 12.423C19.7147 12.6942 19.6084 12.941 19.3988 13.1552C19.1882 13.3722 18.9217 13.4816 18.6087 13.4816C18.3241 13.4816 18.1002 13.4124 17.9465 13.2777C17.8024 13.1515 17.6525 12.9551 17.4865 12.6746C17.2949 12.3155 17.0625 12.0321 16.796 11.8321C16.537 11.6375 16.1054 11.5403 15.5106 11.5403C14.9605 11.5403 14.5108 11.6487 14.1779 11.8648C13.8572 12.0714 13.7007 12.3099 13.7007 12.5923C13.7007 12.7643 13.751 12.9093 13.8553 13.0327C13.9635 13.1655 14.1181 13.2796 14.3135 13.3768C14.5155 13.4769 14.7243 13.5573 14.9329 13.6134C15.1464 13.6723 15.5049 13.7593 15.9972 13.8715C16.6204 14.0024 17.1924 14.1511 17.698 14.311C18.2112 14.4718 18.6532 14.6701 19.0156 14.9029C19.3837 15.1395 19.6749 15.4425 19.8826 15.8053C20.0903 16.1709 20.1956 16.6197 20.1956 17.1425C20.1956 17.7671 20.0135 18.3366 19.6568 18.835Z" fill="white"/>
</g>
<defs>
<clipPath id="clip0_37_623">
<rect width="30.25" height="30.25" fill="white" transform="translate(0.5)"/>
</clipPath>
</defs>
</svg>
