<svg width="24" height="22" viewBox="0 0 24 22" fill="none" xmlns="http://www.w3.org/2000/svg">
<path fill-rule="evenodd" clip-rule="evenodd" d="M12.465 0.136595C12.1868 -0.0455318 11.8132 -0.0455318 11.535 0.136595L0.335009 7.46993C0.124773 7.60758 0 7.82984 0 8.06667V21.2667C0 21.6717 0.358172 22 0.8 22H3.2V11.7333H11.2V22H23.2C23.6418 22 24 21.6717 24 21.2667V8.06667C24 7.82984 23.8752 7.60758 23.665 7.46993L22.4 6.64166V2.93333H20.8V5.59404L12.465 0.136595ZM17.6 17.6V11.7333H19.2V17.6H17.6Z" fill="white"/>
<path d="M9.6 22V17.6H8V16.1333H9.6V13.2H4.8V22H9.6Z" fill="white"/>
</svg>
