<svg width="24" height="20" viewBox="0 0 24 20" fill="none" xmlns="http://www.w3.org/2000/svg">
<path fill-rule="evenodd" clip-rule="evenodd" d="M22.4 17.6923V13.8462H23.0891C23.5922 13.8462 24 13.454 24 12.9703V7.0297C24 6.54598 23.5922 6.15385 23.0891 6.15385H22.4V2.30769C22.4 1.03319 21.3255 0 20 0H2.4C1.07452 0 0 1.03319 0 2.30769V17.6923C0 18.9668 1.07451 20 2.4 20H20C21.3255 20 22.4 18.9668 22.4 17.6923ZM22.4 7.69231V12.3077L15.2 12.3077C13.8745 12.3077 12.8 11.2745 12.8 10C12.8 8.7255 13.8745 7.69231 15.2 7.69231H22.4Z" fill="white"/>
</svg>
