<svg width="40" height="40" viewBox="0 0 40 40" fill="none" xmlns="http://www.w3.org/2000/svg">
<path d="M10 29.2001L11.435 23.8694C10.2777 21.7928 9.91003 19.3695 10.3994 17.0444C10.8888 14.7192 12.2024 12.648 14.0992 11.211C15.996 9.77387 18.3487 9.06726 20.7256 9.22078C23.1026 9.3743 25.3443 10.3777 27.0394 12.0467C28.7345 13.7158 29.7694 15.9387 29.9541 18.3074C30.1387 20.6761 29.4608 23.0318 28.0447 24.9422C26.6286 26.8526 24.5694 28.1895 22.2448 28.7077C19.9202 29.2259 17.4863 28.8905 15.3896 27.7632L10 29.2001ZM15.6494 25.7684L15.9827 25.9656C17.5014 26.8635 19.2752 27.235 21.0277 27.0224C22.7802 26.8097 24.4129 26.0248 25.6715 24.7899C26.9301 23.555 27.7437 21.9395 27.9857 20.1952C28.2277 18.4509 27.8844 16.6758 27.0093 15.1464C26.1342 13.617 24.7765 12.4194 23.1478 11.74C21.519 11.0607 19.7108 10.9378 18.0047 11.3906C16.2986 11.8434 14.7907 12.8464 13.7158 14.2432C12.6409 15.6401 12.0594 17.3525 12.062 19.1134C12.0606 20.5735 12.4654 22.0053 13.2315 23.2495L13.4405 23.5933L12.6383 26.5686L15.6494 25.7684Z" fill="#14274E"/>
<path fill-rule="evenodd" clip-rule="evenodd" d="M23.7394 20.4822C23.544 20.325 23.3152 20.2144 23.0704 20.1587C22.8257 20.103 22.5714 20.1038 22.327 20.161C21.9598 20.3131 21.7225 20.8879 21.4853 21.1753C21.4352 21.2442 21.3617 21.2925 21.2785 21.3112C21.1953 21.3299 21.1081 21.3176 21.0333 21.2767C19.6889 20.7515 18.5621 19.7884 17.8357 18.5437C17.7738 18.4661 17.7445 18.3675 17.754 18.2687C17.7634 18.1699 17.811 18.0786 17.8866 18.014C18.1512 17.7527 18.3455 17.4291 18.4515 17.073C18.4751 16.6802 18.3849 16.289 18.1917 15.946C18.0423 15.4651 17.758 15.0368 17.3725 14.7119C17.1736 14.6227 16.9531 14.5928 16.7376 14.6258C16.5221 14.6588 16.3207 14.7533 16.1579 14.8979C15.8751 15.1412 15.6506 15.4447 15.5011 15.7861C15.3515 16.1274 15.2805 16.4978 15.2935 16.8701C15.2944 17.0792 15.3209 17.2874 15.3726 17.49C15.5038 17.9768 15.7055 18.4419 15.9714 18.8706C16.1633 19.1989 16.3726 19.5168 16.5985 19.8229C17.3327 20.8282 18.2556 21.6817 19.3159 22.3361C19.848 22.6687 20.4167 22.9391 21.0107 23.1419C21.6278 23.421 22.3091 23.5281 22.9824 23.4519C23.3659 23.394 23.7294 23.2429 24.0407 23.012C24.352 22.7811 24.6016 22.4774 24.7676 22.1276C24.8651 21.9164 24.8947 21.6802 24.8523 21.4514C24.7506 20.9837 24.1236 20.7076 23.7394 20.4822Z" fill="#14274E"/>
</svg>
