<svg width="40" height="40" viewBox="0 0 40 40" fill="none" xmlns="http://www.w3.org/2000/svg">
<path fill-rule="evenodd" clip-rule="evenodd" d="M10.0479 19.7537C10.0479 14.1778 14.418 10.0479 20.0539 10.0479C25.6897 10.0479 30.0599 14.1803 30.0599 19.7562C30.0599 25.332 25.6897 29.462 20.0539 29.462C19.0407 29.462 18.0702 29.3269 17.1571 29.0768C16.9795 29.0292 16.7894 29.0417 16.6218 29.1168L14.6356 29.9923C14.5156 30.0452 14.3845 30.0679 14.2538 30.0582C14.123 30.0486 13.9966 30.007 13.8857 29.9371C13.7748 29.8672 13.6827 29.7711 13.6177 29.6573C13.5526 29.5435 13.5164 29.4154 13.5124 29.2844L13.4574 27.5033C13.4524 27.2832 13.3523 27.0781 13.1897 26.933C11.2436 25.1919 10.0479 22.6704 10.0479 19.7537ZM16.9845 17.9301L14.0452 22.5929C13.7626 23.0406 14.3129 23.5434 14.7332 23.2233L17.8901 20.8268C17.9939 20.7479 18.1207 20.705 18.2511 20.7045C18.3815 20.7041 18.5086 20.7461 18.613 20.8243L20.9519 22.5779C21.1178 22.7025 21.3077 22.7913 21.5097 22.8388C21.7116 22.8863 21.9213 22.8914 22.1253 22.8538C22.3293 22.8161 22.5233 22.7366 22.6951 22.6203C22.8669 22.5039 23.0126 22.3532 23.1232 22.1776L26.065 17.5173C26.3451 17.0696 25.7948 16.5643 25.3745 16.8844L22.2176 19.2809C22.1138 19.3598 21.987 19.4027 21.8566 19.4032C21.7262 19.4036 21.5991 19.3616 21.4947 19.2834L19.1558 17.5298C18.9899 17.4052 18.8 17.3164 18.598 17.2689C18.3961 17.2214 18.1865 17.2163 17.9824 17.2539C17.7784 17.2916 17.5844 17.3711 17.4126 17.4874C17.2408 17.6038 17.0951 17.7545 16.9845 17.9301Z" fill="#14274E"/>
</svg>
