<svg width="21" height="21" viewBox="0 0 21 21" fill="none" xmlns="http://www.w3.org/2000/svg">
<path d="M20.0251 3.1059H0.975824C0.948385 3.1059 0.921396 3.10778 0.894531 3.11L1.80906 3.7263C1.86283 3.74705 1.91525 3.77338 1.965 3.80694L10.5005 9.55909L19.0359 3.80694C19.036 3.80685 19.0361 3.80685 19.0362 3.80681L20.0726 3.10832C20.0568 3.10754 20.0412 3.1059 20.0251 3.1059Z" fill="#14274E"/>
<path d="M16.6036 7.32763L10.936 11.1471C10.8043 11.2359 10.6521 11.2803 10.5 11.2803C10.3478 11.2803 10.1957 11.2359 10.0639 11.1471L8.23688 9.91584C8.18225 9.89496 8.12913 9.86765 8.0786 9.8336L0 4.38923V16.9187C0 17.4574 0.436693 17.8941 0.975352 17.8941H20.0246C20.5633 17.8941 21 17.4574 21 16.9187V4.36487L16.6036 7.32763Z" fill="#14274E"/>
</svg>
