<svg width="40" height="40" viewBox="0 0 40 40" fill="none" xmlns="http://www.w3.org/2000/svg">
<path d="M21.9432 15.5308C21.9432 17.2166 21.2706 18.8334 20.0732 20.0255C18.8758 21.2176 17.2519 21.8873 15.5585 21.8873C13.8652 21.8873 12.2412 21.2176 11.0439 20.0255C9.8465 18.8334 9.17383 17.2166 9.17383 15.5308C9.17383 13.845 9.8465 12.2282 11.0439 11.0361C12.2412 9.84402 13.8652 9.17432 15.5585 9.17432C17.2519 9.17432 18.8758 9.84402 20.0732 11.0361C21.2706 12.2282 21.9432 13.845 21.9432 15.5308Z" fill="#14274E"/>
<path d="M30.8412 24.6593C30.8412 25.4943 30.676 26.3212 30.355 27.0926C30.034 27.8641 29.5636 28.5651 28.9705 29.1555C28.3774 29.746 27.6733 30.2144 26.8984 30.5339C26.1235 30.8535 25.293 31.0179 24.4543 31.0179C22.7604 31.0179 21.1358 30.348 19.9381 29.1555C18.7403 27.963 18.0674 26.3457 18.0674 24.6593C18.0674 22.9728 18.7403 21.3555 19.9381 20.163C21.1358 18.9705 22.7604 18.3006 24.4543 18.3006C25.293 18.3006 26.1235 18.4651 26.8984 18.7846C27.6733 19.1042 28.3774 19.5726 28.9705 20.163C29.5636 20.7535 30.034 21.4544 30.355 22.2259C30.676 22.9974 30.8412 23.8242 30.8412 24.6593Z" fill="#14274E"/>
<path d="M30.1214 20.1435C30.1214 21.4656 29.8598 22.7747 29.3516 23.9962C28.8434 25.2177 28.0985 26.3275 27.1595 27.2624C26.2205 28.1973 25.1057 28.9389 23.8788 29.4448C22.6519 29.9508 21.3369 30.2112 20.0089 30.2112C18.6809 30.2112 17.366 29.9508 16.1391 29.4448C14.9122 28.9389 13.7974 28.1973 12.8584 27.2624C11.9193 26.3275 11.1744 25.2177 10.6662 23.9962C10.1581 22.7747 9.89648 21.4656 9.89648 20.1435C9.89648 18.8213 10.1581 17.5122 10.6662 16.2907C11.1744 15.0692 11.9193 13.9594 12.8584 13.0245C13.7974 12.0896 14.9122 11.3481 16.1391 10.8421C17.366 10.3362 18.6809 10.0757 20.0089 10.0757C21.3369 10.0757 22.6519 10.3362 23.8788 10.8421C25.1057 11.3481 26.2205 12.0896 27.1595 13.0245C28.0985 13.9594 28.8434 15.0692 29.3516 16.2907C29.8598 17.5122 30.1214 18.8213 30.1214 20.1435Z" fill="#14274E"/>
<path fill-rule="evenodd" clip-rule="evenodd" d="M17.165 19.7939C16.7563 19.5253 16.4153 19.166 16.1685 18.744C15.9303 18.2982 15.8127 17.798 15.8274 17.2929C15.8093 16.6518 16.0284 16.0266 16.4426 15.5366C16.8731 15.0446 17.4264 14.6753 18.0463 14.4663C18.7204 14.2284 19.4306 14.1089 20.1456 14.1132C20.6133 14.1087 21.0806 14.1446 21.5422 14.2202C21.8726 14.2712 22.1971 14.3548 22.511 14.4699C22.7991 14.5674 23.0593 14.7333 23.269 14.9534C23.4236 15.1345 23.5068 15.3657 23.503 15.6036C23.5085 15.7272 23.4896 15.8507 23.4473 15.967C23.4051 16.0833 23.3403 16.1902 23.2567 16.2815C23.1775 16.3656 23.0815 16.4321 22.9748 16.4765C22.8682 16.5209 22.7533 16.5423 22.6378 16.5393C22.4788 16.5379 22.322 16.5027 22.1778 16.4359C21.8225 16.277 21.4564 16.1432 21.0823 16.0354C20.7379 15.9447 20.3829 15.9006 20.0268 15.9043C19.5626 15.8873 19.1034 16.0046 18.7045 16.2422C18.5361 16.3444 18.3983 16.4898 18.3055 16.6634C18.2127 16.8369 18.1682 17.0322 18.1767 17.2288C18.1743 17.4869 18.2726 17.7358 18.4508 17.9227C18.6626 18.1422 18.9129 18.3212 19.1892 18.4506C19.4988 18.604 19.9604 18.8073 20.5742 19.0607C20.6422 19.0822 20.7084 19.1088 20.7725 19.1401C21.3714 19.3768 21.9456 19.6716 22.4869 20.0204C22.9144 20.2988 23.2748 20.6683 23.5424 21.1024C23.8058 21.5586 23.9378 22.0787 23.9236 22.6052C23.9457 23.2499 23.7608 23.8846 23.3959 24.4168C23.0243 24.9206 22.5102 25.3018 21.9198 25.5111C21.2083 25.7651 20.4564 25.8875 19.7009 25.8723C18.6628 25.9086 17.6297 25.7133 16.6766 25.3007C16.4329 25.1923 16.2193 25.0264 16.0541 24.8172C15.9169 24.6256 15.8458 24.3946 15.8515 24.159C15.8446 24.0348 15.8649 23.9106 15.9108 23.7949C15.9568 23.6793 16.0273 23.5749 16.1175 23.4892C16.3067 23.3237 16.5522 23.2372 16.8034 23.2474C17.0833 23.2512 17.3583 23.3219 17.6053 23.4535C17.9124 23.6069 18.1546 23.7219 18.332 23.7986C18.5346 23.8833 18.7444 23.9496 18.9589 23.9967C19.2234 24.0546 19.4936 24.0825 19.7644 24.0797C20.2432 24.1138 20.7197 23.9869 21.118 23.7192C21.2671 23.6027 21.3862 23.4524 21.4656 23.2807C21.5449 23.109 21.5822 22.9209 21.5743 22.7319C21.5747 22.464 21.4725 22.2061 21.2885 22.0111C21.0455 21.7604 20.7609 21.5535 20.4474 21.3995C20.0766 21.2043 19.5551 20.9665 18.8831 20.6859C18.282 20.4466 17.7064 20.1478 17.165 19.7939Z" fill="white"/>
</svg>
