<svg width="23" height="23" viewBox="0 0 23 23" fill="none" xmlns="http://www.w3.org/2000/svg">
<path d="M11.102 22.341C17.1374 22.341 22.0301 17.4483 22.0301 11.4129C22.0301 5.37744 17.1374 0.484741 11.102 0.484741C5.06653 0.484741 0.173828 5.37744 0.173828 11.4129C0.173828 17.4483 5.06653 22.341 11.102 22.341Z" fill="#14274E"/>
<path d="M4.85878 11.1735C4.85878 11.1735 10.272 8.87056 12.1494 8.05963C12.8691 7.73528 15.3098 6.69728 15.3098 6.69728C15.3098 6.69728 16.4362 6.2432 16.3424 7.34602C16.311 7.80015 16.0607 9.38952 15.8104 11.1087C15.4349 13.5414 15.0281 16.2012 15.0281 16.2012C15.0281 16.2012 14.9656 16.9473 14.4336 17.077C13.9017 17.2067 13.0255 16.6229 12.8691 16.4931C12.7439 16.3959 10.5223 14.9362 9.70879 14.2226C9.48975 14.028 9.23944 13.6388 9.74006 13.1846C10.8665 12.1142 12.212 10.7843 13.0255 9.94097C13.4011 9.55171 13.7765 8.6435 12.212 9.74632C9.99041 11.3357 7.80008 12.8278 7.80008 12.8278C7.80008 12.8278 7.29942 13.1522 6.36072 12.8602C5.42198 12.5683 4.32681 12.1791 4.32681 12.1791C4.32681 12.1791 3.57589 11.6925 4.85878 11.1735Z" fill="white"/>
</svg>
