<svg width="40" height="40" viewBox="0 0 40 40" fill="none" xmlns="http://www.w3.org/2000/svg">
<path d="M10.0001 29.2002L11.435 23.8694C10.2778 21.7928 9.91009 19.3696 10.3995 17.0444C10.8888 14.7193 12.2025 12.6481 14.0992 11.211C15.996 9.77393 18.3487 9.06732 20.7257 9.22084C23.1026 9.37436 25.3443 10.3777 27.0395 12.0468C28.7346 13.7159 29.7695 15.9387 29.9541 18.3074C30.1388 20.6762 29.4609 23.0318 28.0448 24.9422C26.6287 26.8526 24.5694 28.1896 22.2448 28.7078C19.9203 29.2259 17.4863 28.8906 15.3896 27.7633L10.0001 29.2002ZM15.6495 25.7684L15.9828 25.9657C17.5015 26.8635 19.2753 27.2351 21.0278 27.0224C22.7803 26.8098 24.413 26.0248 25.6716 24.79C26.9301 23.5551 27.7438 21.9396 27.9858 20.1953C28.2277 18.451 27.8845 16.6758 27.0094 15.1465C26.1343 13.6171 24.7766 12.4194 23.1479 11.7401C21.5191 11.0607 19.7108 10.9379 18.0048 11.3906C16.2987 11.8434 14.7907 12.8464 13.7158 14.2433C12.6409 15.6402 12.0595 17.3525 12.0621 19.1134C12.0607 20.5735 12.4655 22.0054 13.2315 23.2496L13.4406 23.5933L12.6383 26.5686L15.6495 25.7684Z" fill="#14274E"/>
<path fill-rule="evenodd" clip-rule="evenodd" d="M23.7393 20.4823C23.5439 20.3251 23.3151 20.2144 23.0704 20.1588C22.8256 20.1031 22.5714 20.1039 22.327 20.1611C21.9598 20.3132 21.7225 20.888 21.4852 21.1754C21.4352 21.2443 21.3617 21.2926 21.2784 21.3113C21.1952 21.3299 21.1081 21.3177 21.0333 21.2768C19.6889 20.7516 18.562 19.7884 17.8357 18.5438C17.7737 18.4661 17.7444 18.3675 17.7539 18.2687C17.7634 18.1699 17.8109 18.0786 17.8865 18.0141C18.1512 17.7528 18.3455 17.4291 18.4515 17.0731C18.475 16.6803 18.3848 16.2891 18.1916 15.946C18.0422 15.4651 17.758 15.0369 17.3724 14.712C17.1736 14.6228 16.9531 14.5928 16.7376 14.6258C16.522 14.6588 16.3207 14.7533 16.1578 14.8979C15.875 15.1413 15.6506 15.4448 15.501 15.7861C15.3514 16.1274 15.2805 16.4979 15.2934 16.8702C15.2943 17.0793 15.3209 17.2874 15.3725 17.49C15.5037 17.9769 15.7055 18.442 15.9714 18.8706C16.1632 19.199 16.3725 19.5169 16.5985 19.823C17.3326 20.8282 18.2555 21.6818 19.3158 22.3362C19.8479 22.6687 20.4166 22.9391 21.0107 23.142C21.6278 23.421 22.3091 23.5281 22.9823 23.4519C23.3659 23.394 23.7293 23.243 24.0406 23.0121C24.3519 22.7811 24.6015 22.4774 24.7675 22.1277C24.8651 21.9164 24.8947 21.6802 24.8523 21.4515C24.7506 20.9838 24.1235 20.7077 23.7393 20.4823Z" fill="#14274E"/>
</svg>
