<svg width="22" height="23" viewBox="0 0 22 23" fill="none" xmlns="http://www.w3.org/2000/svg">
<path d="M12.9437 6.5308C12.9437 8.21665 12.271 9.83345 11.0737 11.0255C9.87631 12.2176 8.25234 12.8873 6.55901 12.8873C4.86569 12.8873 3.24171 12.2176 2.04435 11.0255C0.846988 9.83345 0.174316 8.21665 0.174316 6.5308C0.174316 4.84496 0.846988 3.22816 2.04435 2.03609C3.24171 0.844016 4.86569 0.174316 6.55901 0.174316C8.25234 0.174316 9.87631 0.844016 11.0737 2.03609C12.271 3.22816 12.9437 4.84496 12.9437 6.5308Z" fill="#14274E"/>
<path d="M21.8418 15.6592C21.8418 16.4942 21.6766 17.3211 21.3556 18.0926C21.0346 18.864 20.5642 19.565 19.9711 20.1555C19.378 20.7459 18.6739 21.2143 17.899 21.5339C17.1241 21.8534 16.2936 22.0179 15.4549 22.0179C13.761 22.0179 12.1364 21.348 10.9387 20.1555C9.74089 18.963 9.06799 17.3456 9.06799 15.6592C9.06799 13.9728 9.74089 12.3554 10.9387 11.1629C12.1364 9.97047 13.761 9.30054 15.4549 9.30054C16.2936 9.30054 17.1241 9.46501 17.899 9.78456C18.6739 10.1041 19.378 10.5725 19.9711 11.1629C20.5642 11.7534 21.0346 12.4544 21.3556 13.2259C21.6766 13.9973 21.8418 14.8242 21.8418 15.6592Z" fill="#14274E"/>
<path d="M21.1216 11.1434C21.1216 12.4655 20.86 13.7747 20.3518 14.9961C19.8436 16.2176 19.0987 17.3275 18.1597 18.2623C17.2207 19.1972 16.1059 19.9388 14.879 20.4448C13.6521 20.9507 12.3371 21.2111 11.0091 21.2111C9.68113 21.2111 8.36615 20.9507 7.13925 20.4448C5.91235 19.9388 4.79756 19.1972 3.85853 18.2623C2.91951 17.3275 2.17463 16.2176 1.66643 14.9961C1.15823 13.7747 0.896667 12.4655 0.896667 11.1434C0.896667 9.82129 1.15823 8.51212 1.66643 7.29065C2.17463 6.06918 2.91951 4.95932 3.85853 4.02445C4.79756 3.08958 5.91235 2.34799 7.13925 1.84204C8.36615 1.33609 9.68113 1.07568 11.0091 1.07568C12.3371 1.07568 13.6521 1.33609 14.879 1.84204C16.1059 2.34799 17.2207 3.08958 18.1597 4.02445C19.0987 4.95932 19.8436 6.06918 20.3518 7.29065C20.86 8.51212 21.1216 9.82129 21.1216 11.1434Z" fill="#14274E"/>
<path fill-rule="evenodd" clip-rule="evenodd" d="M8.1656 10.7939C7.75694 10.5253 7.41593 10.166 7.16915 9.744C6.9309 9.2982 6.81331 8.79799 6.82801 8.29286C6.80995 7.6518 7.02897 7.02658 7.44323 6.53663C7.87374 6.04462 8.42706 5.67531 9.04687 5.46629C9.72099 5.22841 10.4313 5.10893 11.1462 5.11316C11.6139 5.10874 12.0812 5.14455 12.5428 5.22019C12.8732 5.27115 13.1977 5.35481 13.5116 5.46993C13.7997 5.56737 14.0599 5.73328 14.2697 5.95341C14.4242 6.13452 14.5074 6.36567 14.5036 6.60362C14.5092 6.72723 14.4902 6.85072 14.448 6.96704C14.4057 7.08335 14.3409 7.1902 14.2573 7.2815C14.1781 7.36563 14.0821 7.43208 13.9754 7.47651C13.8688 7.52093 13.7539 7.54231 13.6384 7.53925C13.4795 7.53794 13.3226 7.50269 13.1784 7.43586C12.8231 7.27697 12.457 7.14316 12.0829 7.03539C11.7385 6.94469 11.3835 6.90061 11.0274 6.90433C10.5632 6.88727 10.104 7.0046 9.7051 7.24218C9.53675 7.34436 9.39896 7.48982 9.30612 7.66337C9.21329 7.83692 9.16881 8.03219 9.17735 8.22878C9.1749 8.48688 9.27321 8.73578 9.45143 8.92268C9.6632 9.14224 9.91347 9.32116 10.1898 9.45057C10.4994 9.60396 10.961 9.80735 11.5748 10.0607C11.6428 10.0822 11.709 10.1088 11.7731 10.1401C12.372 10.3768 12.9463 10.6716 13.4875 11.0204C13.915 11.2988 14.2754 11.6683 14.543 12.1024C14.8065 12.5586 14.9384 13.0787 14.9242 13.6052C14.9463 14.2499 14.7614 14.8846 14.3965 15.4168C14.0249 15.9206 13.5108 16.3018 12.9204 16.5111C12.2089 16.7651 11.457 16.8875 10.7015 16.8723C9.66344 16.9086 8.63029 16.7133 7.67721 16.3007C7.43356 16.1923 7.21993 16.0264 7.05471 15.8172C6.91753 15.6256 6.84642 15.3946 6.85206 15.159C6.84526 15.0348 6.86552 14.9106 6.91145 14.7949C6.95739 14.6793 7.0279 14.5749 7.11812 14.4892C7.30728 14.3237 7.55283 14.2372 7.80405 14.2474C8.08395 14.2512 8.35888 14.3219 8.60587 14.4535C8.91299 14.6069 9.15524 14.7219 9.33261 14.7986C9.53518 14.8833 9.74499 14.9496 9.95949 14.9967C10.224 15.0546 10.4942 15.0825 10.765 15.0797C11.2438 15.1138 11.7203 14.9869 12.1186 14.7192C12.2677 14.6027 12.3868 14.4524 12.4662 14.2807C12.5455 14.109 12.5828 13.9209 12.5749 13.7319C12.5753 13.464 12.4731 13.2061 12.2892 13.0111C12.0461 12.7604 11.7615 12.5535 11.448 12.3995C11.0772 12.2043 10.5558 11.9665 9.88368 11.6859C9.28261 11.4466 8.70704 11.1478 8.1656 10.7939Z" fill="white"/>
</svg>
