<svg width="21" height="22" viewBox="0 0 21 22" fill="none" xmlns="http://www.w3.org/2000/svg">
<g clip-path="url(#clip0_253_415)">
<path d="M17.5363 3.26067C17.0711 2.84076 15.0631 1.5873 10.8733 1.56915C10.8733 1.56915 5.91235 1.2453 3.50396 3.41252C2.16319 4.72738 1.71162 6.68266 1.66145 9.06908C1.61127 11.4555 1.35541 16.0131 5.74853 17.2256C5.74853 17.2256 5.73159 20.6096 5.72926 20.9071C5.72926 21.1151 5.76249 21.2573 5.88211 21.2867C5.96851 21.3075 6.0971 21.2633 6.20709 21.1547C6.9092 20.4538 9.1581 17.7584 9.1581 17.7584C12.1759 17.9542 14.5763 17.3623 14.8345 17.2784C15.4419 17.085 18.7329 16.8027 19.2914 12.3323C19.8706 7.72187 19.0821 4.57552 17.5363 3.26067Z" fill="white"/>
<path d="M18.6294 2.14595C18.0791 1.64153 15.8555 0.0378219 10.9025 0.0160342C10.9025 0.0160342 5.0616 -0.33389 2.21426 2.26083C0.629264 3.83582 0.0716914 6.14037 0.0128772 8.99753C-0.045937 11.8547 -0.122031 17.2092 5.07323 18.6611H5.07821L5.07489 20.8765C5.07489 20.8765 5.04166 21.7734 5.63611 21.9563C6.35518 22.1781 6.77718 21.4964 7.46368 20.7616C7.84049 20.3582 8.36084 19.7656 8.75294 19.3127C12.306 19.6098 15.0387 18.9308 15.3491 18.8304C16.0665 18.5993 20.126 18.0824 20.7863 12.7285C21.4678 7.20995 20.4566 3.71929 18.6294 2.14595ZM19.2315 12.3327C18.6743 16.8032 15.3817 17.0841 14.7746 17.2775C14.5164 17.3601 12.1163 17.9533 9.09818 17.7575C9.09818 17.7575 6.84928 20.4529 6.14684 21.1538C6.03718 21.2634 5.90826 21.3076 5.82219 21.2858C5.70124 21.2564 5.66801 21.1142 5.66934 20.9062C5.67134 20.6091 5.68862 17.2247 5.68862 17.2247C1.29383 16.0125 1.55002 11.4553 1.59986 9.06884C1.64971 6.68242 2.10095 4.72747 3.44138 3.41261C5.84977 1.24539 10.8111 1.56924 10.8111 1.56924C15.0009 1.58739 17.0085 2.84085 17.4741 3.26076C19.0198 4.57561 19.8074 7.72196 19.2315 12.3314V12.3327Z" fill="#14274E"/>
<path d="M12.9415 9.15086C12.8697 9.15086 12.8006 9.12345 12.7486 9.07429C12.6966 9.02513 12.6656 8.958 12.662 8.88676C12.6145 7.9423 12.1666 7.4798 11.2525 7.43095C11.1796 7.42519 11.112 7.39139 11.0639 7.33676C11.0157 7.28213 10.991 7.21099 10.995 7.13851C10.9989 7.06603 11.0312 6.99795 11.085 6.94879C11.1387 6.89963 11.2097 6.87328 11.2827 6.87536C12.4889 6.94138 13.1595 7.62571 13.2213 8.85903C13.2231 8.89553 13.2177 8.93204 13.2053 8.96646C13.1929 9.00088 13.1739 9.03255 13.1492 9.05964C13.1245 9.08674 13.0947 9.10875 13.0614 9.1244C13.0282 9.14005 12.9922 9.14904 12.9554 9.15086H12.9415Z" fill="#14274E"/>
<path d="M14.3789 9.62948H14.3723C14.298 9.62775 14.2275 9.5968 14.1762 9.54344C14.1249 9.49008 14.0971 9.41867 14.0988 9.34491C14.1204 8.39385 13.8469 7.62368 13.2628 6.99052C12.6786 6.35735 11.8828 6.01403 10.8218 5.93679C10.7476 5.9314 10.6786 5.89695 10.6299 5.84102C10.5813 5.78508 10.557 5.71224 10.5625 5.63852C10.5679 5.56481 10.6025 5.49624 10.6588 5.44792C10.7152 5.3996 10.7885 5.37548 10.8627 5.38087C12.0566 5.46769 13.0029 5.88265 13.6758 6.61386C14.3487 7.34507 14.6833 8.27005 14.6587 9.35647C14.6572 9.42927 14.6271 9.49861 14.5748 9.54963C14.5225 9.60066 14.4522 9.62932 14.3789 9.62948Z" fill="#14274E"/>
<path d="M15.8499 10.2007C15.776 10.2006 15.7051 10.1715 15.6527 10.1198C15.6002 10.068 15.5704 9.99779 15.5698 9.92435C15.5569 8.22326 15.0638 6.92391 14.0622 5.95271C13.0727 4.99537 11.8227 4.50415 10.3463 4.49359C10.3095 4.49346 10.2731 4.48613 10.2392 4.47203C10.2053 4.45792 10.1745 4.43732 10.1485 4.41138C10.0962 4.35901 10.0669 4.28812 10.0672 4.21431C10.0675 4.14051 10.0972 4.06983 10.1499 4.01782C10.2027 3.96582 10.274 3.93675 10.3483 3.93701H10.3506C11.9762 3.9489 13.3565 4.49293 14.4533 5.55459C15.5502 6.61624 16.1158 8.08791 16.1304 9.92105C16.1309 9.9948 16.102 10.0657 16.0499 10.1183C15.9978 10.1708 15.9268 10.2007 15.8526 10.2013L15.8499 10.2007Z" fill="#14274E"/>
<path d="M11.3229 12.5998C11.3229 12.5998 11.7167 12.6328 11.9287 12.3734L12.342 11.8567C12.5414 11.6006 13.0225 11.4372 13.4937 11.6979C13.8468 11.898 14.1896 12.1155 14.5208 12.3496C14.8335 12.578 15.4738 13.1089 15.4758 13.1089C15.7808 13.3647 15.8513 13.7404 15.6436 14.1365C15.6436 14.1388 15.6419 14.1428 15.6419 14.1448C15.4132 14.5387 15.1228 14.894 14.7816 15.1972C14.7777 15.1992 14.7777 15.2011 14.774 15.2031C14.4776 15.4492 14.1864 15.589 13.9004 15.6227C13.8583 15.63 13.8155 15.6327 13.7728 15.6306C13.6467 15.6318 13.5212 15.6127 13.4013 15.5738L13.392 15.5603C12.9514 15.4369 12.2157 15.1279 10.9906 14.4564C10.2817 14.0724 9.6067 13.6295 8.97299 13.1323C8.65536 12.8833 8.35237 12.6163 8.06552 12.3328L8.03495 12.3024L8.00438 12.272L7.97381 12.2416C7.96351 12.2317 7.95354 12.2215 7.94324 12.2113C7.65784 11.9263 7.38914 11.6253 7.13845 11.3097C6.6381 10.6802 6.19224 10.0098 5.80566 9.30558C5.1298 8.08811 4.81878 7.35789 4.6945 6.9195L4.68088 6.91025C4.64193 6.7911 4.62274 6.66645 4.62406 6.54118C4.62173 6.49878 4.6243 6.45625 4.6317 6.41442C4.66737 6.13074 4.80837 5.84122 5.0547 5.54588C5.05669 5.54225 5.05869 5.54225 5.06068 5.53829C5.36582 5.19936 5.72342 4.91096 6.12 4.68394C6.122 4.68394 6.12598 4.68196 6.12831 4.68196C6.52705 4.47564 6.90519 4.54562 7.16238 4.84702C7.16437 4.849 7.69769 5.48514 7.92663 5.79578C8.1623 6.12515 8.38121 6.46604 8.58256 6.81716C8.84506 7.28494 8.68058 7.76394 8.42273 7.96135L7.9027 8.37201C7.6402 8.58263 7.67476 8.97382 7.67476 8.97382C7.67476 8.97382 8.44499 11.8699 11.3229 12.5998Z" fill="#14274E"/>
</g>
<defs>
<clipPath id="clip0_253_415">
<rect width="21" height="22" fill="white"/>
</clipPath>
</defs>
</svg>
