<svg width="22" height="22" viewBox="0 0 22 22" fill="none" xmlns="http://www.w3.org/2000/svg">
<path d="M7.29232 1.66675H4.33335C2.86059 1.66675 1.66669 2.86066 1.66669 4.33341V7.00008C1.66669 14.3639 7.63622 20.3334 15 20.3334H17.6667C19.1394 20.3334 20.3334 19.1395 20.3334 17.6667V15.8241C20.3334 15.3191 20.048 14.8574 19.5963 14.6316L16.3751 13.0209C15.6493 12.6581 14.7705 13.0221 14.5139 13.7919L14.1168 14.9829C13.8597 15.7544 13.0683 16.2137 12.2708 16.0542C9.07907 15.4159 6.58421 12.921 5.94586 9.7293C5.78637 8.93185 6.24565 8.14043 7.01717 7.88325L8.49534 7.39053C9.1563 7.17021 9.5362 6.47815 9.36723 5.80224L8.58584 2.6767C8.43745 2.08314 7.90414 1.66675 7.29232 1.66675Z" stroke="#14274E" stroke-width="2"/>
</svg>
