<svg width="61" height="61" viewBox="0 0 61 61" fill="none" xmlns="http://www.w3.org/2000/svg">
<g clip-path="url(#clip0_128_265)">
<path d="M28.9783 59.5676C29.4316 59.8639 29.951 60.0119 30.4705 60.0119C30.9899 60.0119 31.5096 59.8638 31.9627 59.5676C32.0779 59.4923 34.8228 57.6867 38.327 54.4225C42.4461 50.5852 45.8272 46.4303 48.3763 42.0728C51.9441 35.9739 53.753 29.6572 53.753 23.2976C53.7532 10.4578 43.3085 0.0119324 30.4705 0.0119324C17.6328 0.0119324 7.18848 10.4578 7.18848 23.2976C7.18848 32.3661 10.9727 41.525 18.1323 49.7843C23.4596 55.9294 28.7554 59.4218 28.9783 59.5676ZM30.4708 17.8398C33.4785 17.8398 35.9254 20.2867 35.9254 23.2943C35.9254 26.3019 33.4785 28.7488 30.4708 28.7488C27.4632 28.7488 25.0163 26.3019 25.0163 23.2943C25.0163 20.2867 27.4632 17.8398 30.4708 17.8398Z" fill="black"/>
</g>
<defs>
<clipPath id="clip0_128_265">
<rect width="60" height="60" fill="white" transform="translate(0.470703 0.0119324)"/>
</clipPath>
</defs>
</svg>
