<svg width="32" height="32" viewBox="0 0 32 32" fill="none" xmlns="http://www.w3.org/2000/svg">
<g clip-path="url(#clip0_121_184)">
<path d="M15.2237 0.018506C6.7725 0.420902 0.103342 7.45909 0.12898 15.9198C0.136786 18.4967 0.758901 20.929 1.85635 23.0782L0.171378 31.2572C0.0802301 31.6996 0.479259 32.087 0.918773 31.9829L8.93326 30.0841C10.9923 31.1098 13.305 31.7022 15.7527 31.7396C24.3906 31.8715 31.5931 25.0128 31.8624 16.3781C32.1509 7.12228 24.5118 -0.423839 15.2237 0.018506ZM24.7867 24.6578C22.4396 27.0049 19.3189 28.2975 15.9996 28.2975C14.056 28.2975 12.1953 27.8615 10.4688 27.0015L9.35272 26.4455L4.43901 27.6097L5.47332 22.5887L4.92345 21.512C4.0272 19.7567 3.57277 17.8587 3.57277 15.8707C3.57277 12.5513 4.86536 9.43074 7.21247 7.08355C9.53861 4.75742 12.7102 3.44377 15.9998 3.44377C19.3191 3.44385 22.4396 4.73645 24.7867 7.08348C27.1338 9.43059 28.4264 12.5512 28.4265 15.8705C28.4264 19.1602 27.1128 22.3318 24.7867 24.6578Z" fill="white"/>
<path d="M23.7017 19.3125L20.6276 18.4298C20.2234 18.3138 19.7882 18.4285 19.4937 18.7285L18.7419 19.4945C18.4249 19.8174 17.944 19.9212 17.5244 19.7514C16.0702 19.1629 13.0111 16.443 12.2299 15.0826C12.0045 14.6901 12.0418 14.1995 12.3185 13.8414L12.9748 12.9923C13.232 12.6596 13.2862 12.2128 13.1162 11.8283L11.8228 8.90304C11.513 8.2024 10.6177 7.99845 10.0328 8.49314C9.17481 9.2188 8.1568 10.3215 8.03305 11.5432C7.81486 13.697 8.73858 16.4122 12.2317 19.6724C16.2671 23.4388 19.4987 23.9364 21.6027 23.4267C22.7961 23.1377 23.7499 21.9789 24.3518 21.03C24.7621 20.3831 24.4381 19.524 23.7017 19.3125Z" fill="white"/>
</g>
<defs>
<clipPath id="clip0_121_184">
<rect width="32" height="32" fill="white"/>
</clipPath>
</defs>
</svg>
