<svg width="22" height="22" viewBox="0 0 22 22" fill="none" xmlns="http://www.w3.org/2000/svg">
<path d="M7.35827 10.9999C7.35827 8.9894 8.98866 7.35912 11.0004 7.35912C13.0121 7.35912 14.6434 8.9894 14.6434 10.9999C14.6434 13.0105 13.0121 14.6408 11.0004 14.6408C8.98866 14.6408 7.35827 13.0105 7.35827 10.9999ZM5.38894 10.9999C5.38894 14.0973 7.90118 16.608 11.0004 16.608C14.0996 16.608 16.6119 14.0973 16.6119 10.9999C16.6119 7.90258 14.0996 5.39184 11.0004 5.39184C7.90118 5.39184 5.38894 7.90258 5.38894 10.9999ZM15.5226 5.16947C15.5225 5.42868 15.5993 5.6821 15.7434 5.89769C15.8874 6.11327 16.0921 6.28133 16.3317 6.38062C16.5713 6.47991 16.8349 6.50597 17.0893 6.45551C17.3437 6.40504 17.5775 6.28031 17.7609 6.09709C17.9444 5.91388 18.0694 5.6804 18.1201 5.42619C18.1708 5.17198 18.1449 4.90846 18.0458 4.66894C17.9466 4.42942 17.7786 4.22467 17.563 4.08057C17.3474 3.93648 17.0939 3.85951 16.8345 3.85941H16.834C16.4864 3.85957 16.153 3.99763 15.9071 4.24326C15.6612 4.4889 15.5229 4.82202 15.5226 5.16947ZM6.58544 19.8898C5.51999 19.8414 4.94088 19.664 4.55604 19.5141C4.04582 19.3156 3.68179 19.0792 3.29904 18.6972C2.91629 18.3152 2.67937 17.9517 2.48161 17.4418C2.33159 17.0574 2.15412 16.4785 2.10569 15.4137C2.05271 14.2624 2.04213 13.9166 2.04213 11C2.04213 8.08344 2.05358 7.73858 2.10569 6.58639C2.15421 5.52158 2.33299 4.94379 2.48161 4.55821C2.68024 4.04831 2.91682 3.68449 3.29904 3.30197C3.68126 2.91945 4.04495 2.68267 4.55604 2.48503C4.94071 2.3351 5.51999 2.15774 6.58544 2.10933C7.73735 2.05638 8.08338 2.04581 11.0004 2.04581C13.9174 2.04581 14.2638 2.05726 15.4167 2.10933C16.4821 2.15782 17.0603 2.3365 17.4461 2.48503C17.9563 2.68267 18.3203 2.91998 18.7031 3.30197C19.0858 3.68396 19.3219 4.04831 19.5205 4.55821C19.6705 4.94265 19.848 5.52158 19.8964 6.58639C19.9494 7.73858 19.96 8.08344 19.96 11C19.96 13.9166 19.9494 14.2615 19.8964 15.4137C19.8479 16.4785 19.6696 17.0572 19.5205 17.4418C19.3219 17.9517 19.0853 18.3156 18.7031 18.6972C18.3209 19.0789 17.9563 19.3156 17.4461 19.5141C17.0614 19.6641 16.4821 19.8414 15.4167 19.8898C14.2648 19.9428 13.9187 19.9534 11.0004 19.9534C8.08207 19.9534 7.737 19.9428 6.58544 19.8898ZM6.49495 0.144495C5.33158 0.197443 4.53663 0.381799 3.84239 0.651781C3.1234 0.930587 2.51475 1.30463 1.90653 1.91152C1.29832 2.51841 0.92501 3.12766 0.646037 3.84621C0.375893 4.54048 0.191426 5.33452 0.138446 6.49719C0.0845926 7.66169 0.0722656 8.03399 0.0722656 10.9999C0.0722656 13.9659 0.0845926 14.3382 0.138446 15.5027C0.191426 16.6654 0.375893 17.4594 0.646037 18.1537C0.92501 18.8718 1.2984 19.4817 1.90653 20.0884C2.51466 20.695 3.1234 21.0685 3.84239 21.3481C4.53794 21.6181 5.33158 21.8024 6.49495 21.8554C7.66076 21.9083 8.03267 21.9215 11.0004 21.9215C13.9681 21.9215 14.3407 21.9092 15.5059 21.8554C16.6693 21.8024 17.4637 21.6181 18.1584 21.3481C18.877 21.0685 19.4861 20.6952 20.0943 20.0884C20.7025 19.4815 21.075 18.8718 21.3548 18.1537C21.6249 17.4594 21.8103 16.6654 21.8624 15.5027C21.9153 14.3373 21.9277 13.9659 21.9277 10.9999C21.9277 8.03399 21.9153 7.66169 21.8624 6.49719C21.8094 5.33443 21.6249 4.54004 21.3548 3.84621C21.075 3.1281 20.7015 2.51937 20.0943 1.91152C19.487 1.30367 18.877 0.930587 18.1593 0.651781C17.4637 0.381799 16.6692 0.196569 15.5067 0.144495C14.3415 0.0915472 13.969 0.0783539 11.0013 0.0783539C8.03355 0.0783539 7.66076 0.0906734 6.49495 0.144495Z" fill="white"/>
<path d="M7.35827 10.9999C7.35827 8.9894 8.98866 7.35912 11.0004 7.35912C13.0121 7.35912 14.6434 8.9894 14.6434 10.9999C14.6434 13.0105 13.0121 14.6408 11.0004 14.6408C8.98866 14.6408 7.35827 13.0105 7.35827 10.9999ZM5.38894 10.9999C5.38894 14.0973 7.90118 16.608 11.0004 16.608C14.0996 16.608 16.6119 14.0973 16.6119 10.9999C16.6119 7.90258 14.0996 5.39184 11.0004 5.39184C7.90118 5.39184 5.38894 7.90258 5.38894 10.9999ZM15.5226 5.16947C15.5225 5.42868 15.5993 5.6821 15.7434 5.89769C15.8874 6.11327 16.0921 6.28133 16.3317 6.38062C16.5713 6.47991 16.8349 6.50597 17.0893 6.45551C17.3437 6.40504 17.5775 6.28031 17.7609 6.09709C17.9444 5.91388 18.0694 5.6804 18.1201 5.42619C18.1708 5.17198 18.1449 4.90846 18.0458 4.66894C17.9466 4.42942 17.7786 4.22467 17.563 4.08057C17.3474 3.93648 17.0939 3.85951 16.8345 3.85941H16.834C16.4864 3.85957 16.153 3.99763 15.9071 4.24326C15.6612 4.4889 15.5229 4.82202 15.5226 5.16947ZM6.58544 19.8898C5.51999 19.8414 4.94088 19.664 4.55604 19.5141C4.04582 19.3156 3.68179 19.0792 3.29904 18.6972C2.91629 18.3152 2.67937 17.9517 2.48161 17.4418C2.33159 17.0574 2.15412 16.4785 2.10569 15.4137C2.05271 14.2624 2.04213 13.9166 2.04213 11C2.04213 8.08344 2.05358 7.73858 2.10569 6.58639C2.15421 5.52158 2.33299 4.94379 2.48161 4.55821C2.68024 4.04831 2.91682 3.68449 3.29904 3.30197C3.68126 2.91945 4.04495 2.68267 4.55604 2.48503C4.94071 2.3351 5.51999 2.15774 6.58544 2.10933C7.73735 2.05638 8.08338 2.04581 11.0004 2.04581C13.9174 2.04581 14.2638 2.05726 15.4167 2.10933C16.4821 2.15782 17.0603 2.3365 17.4461 2.48503C17.9563 2.68267 18.3203 2.91998 18.7031 3.30197C19.0858 3.68396 19.3219 4.04831 19.5205 4.55821C19.6705 4.94265 19.848 5.52158 19.8964 6.58639C19.9494 7.73858 19.96 8.08344 19.96 11C19.96 13.9166 19.9494 14.2615 19.8964 15.4137C19.8479 16.4785 19.6696 17.0572 19.5205 17.4418C19.3219 17.9517 19.0853 18.3156 18.7031 18.6972C18.3209 19.0789 17.9563 19.3156 17.4461 19.5141C17.0614 19.6641 16.4821 19.8414 15.4167 19.8898C14.2648 19.9428 13.9187 19.9534 11.0004 19.9534C8.08207 19.9534 7.737 19.9428 6.58544 19.8898ZM6.49495 0.144495C5.33158 0.197443 4.53663 0.381799 3.84239 0.651781C3.1234 0.930587 2.51475 1.30463 1.90653 1.91152C1.29832 2.51841 0.92501 3.12766 0.646037 3.84621C0.375893 4.54048 0.191426 5.33452 0.138446 6.49719C0.0845926 7.66169 0.0722656 8.03399 0.0722656 10.9999C0.0722656 13.9659 0.0845926 14.3382 0.138446 15.5027C0.191426 16.6654 0.375893 17.4594 0.646037 18.1537C0.92501 18.8718 1.2984 19.4817 1.90653 20.0884C2.51466 20.695 3.1234 21.0685 3.84239 21.3481C4.53794 21.6181 5.33158 21.8024 6.49495 21.8554C7.66076 21.9083 8.03267 21.9215 11.0004 21.9215C13.9681 21.9215 14.3407 21.9092 15.5059 21.8554C16.6693 21.8024 17.4637 21.6181 18.1584 21.3481C18.877 21.0685 19.4861 20.6952 20.0943 20.0884C20.7025 19.4815 21.075 18.8718 21.3548 18.1537C21.6249 17.4594 21.8103 16.6654 21.8624 15.5027C21.9153 14.3373 21.9277 13.9659 21.9277 10.9999C21.9277 8.03399 21.9153 7.66169 21.8624 6.49719C21.8094 5.33443 21.6249 4.54004 21.3548 3.84621C21.075 3.1281 20.7015 2.51937 20.0943 1.91152C19.487 1.30367 18.877 0.930587 18.1593 0.651781C17.4637 0.381799 16.6692 0.196569 15.5067 0.144495C14.3415 0.0915472 13.969 0.0783539 11.0013 0.0783539C8.03355 0.0783539 7.66076 0.0906734 6.49495 0.144495Z" fill="white"/>
</svg>
