<svg width="22" height="18" viewBox="0 0 22 18" fill="none" xmlns="http://www.w3.org/2000/svg">
<path d="M21.1178 2.6064C20.4573 2.89064 19.763 3.08857 19.0519 3.19529C19.3844 3.1383 19.8735 2.53991 20.0682 2.29771C20.3641 1.93236 20.5895 1.51529 20.7331 1.06769C20.7331 1.03444 20.7664 0.98695 20.7331 0.963205C20.7164 0.95406 20.6976 0.949268 20.6785 0.949268C20.6594 0.949268 20.6406 0.95406 20.6239 0.963205C19.8518 1.38133 19.03 1.70045 18.1781 1.91303C18.1484 1.9221 18.1168 1.92291 18.0867 1.91538C18.0566 1.90785 18.0291 1.89226 18.0071 1.87029C17.9408 1.79132 17.8694 1.71676 17.7934 1.64708C17.4459 1.33575 17.0517 1.08094 16.6251 0.891968C16.0493 0.655736 15.4274 0.553429 14.8062 0.592773C14.2035 0.630837 13.6151 0.792492 13.0775 1.06769C12.5482 1.35782 12.083 1.75198 11.7098 2.22647C11.3173 2.71485 11.0339 3.28162 10.8787 3.88866C10.7507 4.46608 10.7362 5.06287 10.836 5.64584C10.836 5.74557 10.836 5.75981 10.7505 5.74557C7.36435 5.24691 4.58612 4.04538 2.31604 1.46661C2.21631 1.35263 2.16407 1.35263 2.08333 1.46661C1.09552 2.96733 1.57518 5.34189 2.80995 6.51493C2.97617 6.67165 3.14714 6.82362 3.3276 6.96609C2.76147 6.9259 2.20916 6.77248 1.7034 6.51493C1.60842 6.45319 1.55618 6.48643 1.55143 6.60041C1.53797 6.75843 1.53797 6.9173 1.55143 7.07532C1.65053 7.83261 1.94897 8.55 2.41625 9.15412C2.88352 9.75824 3.50287 10.2274 4.21094 10.5137C4.38355 10.5876 4.56341 10.6433 4.74759 10.6799C4.22349 10.7831 3.68596 10.7991 3.15663 10.7274C3.04265 10.7036 2.99991 10.7654 3.04266 10.8746C3.74078 12.7743 5.25574 13.3537 6.36704 13.6766C6.51901 13.7003 6.67098 13.7003 6.84195 13.7383C6.84195 13.7383 6.84195 13.7383 6.81346 13.7668C6.48577 14.3652 5.16076 14.7689 4.55287 14.9779C3.44332 15.3764 2.26034 15.5287 1.08602 15.4243C0.900803 15.3958 0.858061 15.4005 0.81057 15.4243C0.763078 15.448 0.81057 15.5003 0.86281 15.5477C1.10027 15.7045 1.33772 15.8422 1.58468 15.9752C2.31986 16.3762 3.0971 16.6947 3.90225 16.925C8.07197 18.0743 12.7641 17.2289 15.8938 14.1183C18.3538 11.6772 19.2182 8.31009 19.2182 4.93822C19.2182 4.80999 19.3749 4.734 19.4651 4.66752C20.0875 4.18258 20.6362 3.60988 21.0941 2.96733C21.1733 2.87155 21.214 2.7496 21.208 2.6254C21.208 2.55416 21.208 2.56841 21.1178 2.6064Z" fill="white"/>
</svg>
