<svg width="24" height="16" viewBox="0 0 24 16" fill="none" xmlns="http://www.w3.org/2000/svg">
<path fill-rule="evenodd" clip-rule="evenodd" d="M21.109 0.476455C22.0919 0.74191 22.8645 1.51646 23.1256 2.49827C23.6008 4.28009 23.6008 8.00009 23.6008 8.00009C23.6008 8.00009 23.6008 11.7201 23.1256 13.5019C22.8609 14.4874 22.0883 15.2619 21.109 15.5237C19.3317 16.0001 12.2008 16.0001 12.2008 16.0001C12.2008 16.0001 5.07351 16.0001 3.2926 15.5237C2.30966 15.2583 1.53708 14.4837 1.27593 13.5019C0.800781 11.7201 0.800781 8.00009 0.800781 8.00009C0.800781 8.00009 0.800781 4.28009 1.27593 2.49827C1.54071 1.51282 2.31329 0.738274 3.2926 0.476455C5.07351 9.17315e-05 12.2008 9.15527e-05 12.2008 9.15527e-05C12.2008 9.15527e-05 19.3317 9.17315e-05 21.109 0.476455ZM15.846 8.00009L9.92296 11.4292V4.571L15.846 8.00009Z" fill="white"/>
</svg>
