<svg width="20" height="21" viewBox="0 0 20 21" fill="none" xmlns="http://www.w3.org/2000/svg">
<path d="M0 20.2002L1.43495 14.8694C0.2777 12.7928 -0.0899718 10.3696 0.399408 8.0444C0.888789 5.71922 2.20239 3.64806 4.09918 2.21098C5.99596 0.773891 8.34868 0.067278 10.7256 0.220802C13.1026 0.374326 15.3443 1.37769 17.0394 3.04677C18.7345 4.71585 19.7694 6.9387 19.9541 9.30741C20.1387 11.6761 19.4608 14.0318 18.0447 15.9422C16.6286 17.8526 14.5694 19.1895 12.2448 19.7077C9.92021 20.2259 7.48625 19.8906 5.38955 18.7632L0 20.2002ZM5.64943 16.7684L5.98274 16.9656C7.50142 17.8635 9.27522 18.2351 11.0277 18.0224C12.7802 17.8097 14.4129 17.0248 15.6715 15.7899C16.9301 14.555 17.7437 12.9396 17.9857 11.1953C18.2277 9.45096 17.8844 7.6758 17.0093 6.14643C16.1342 4.61706 14.7765 3.41937 13.1478 2.74003C11.519 2.06068 9.71075 1.93782 8.0047 2.3906C6.29864 2.84339 4.79067 3.84638 3.71576 5.24327C2.64086 6.64016 2.05942 8.35249 2.06204 10.1134C2.06061 11.5735 2.46544 13.0053 3.23147 14.2495L3.4405 14.5933L2.63828 17.5686L5.64943 16.7684Z" fill="white"/>
<path fill-rule="evenodd" clip-rule="evenodd" d="M13.7394 11.4822C13.544 11.325 13.3152 11.2144 13.0704 11.1587C12.8257 11.103 12.5714 11.1038 12.327 11.161C11.9598 11.3132 11.7225 11.8879 11.4853 12.1753C11.4352 12.2442 11.3617 12.2925 11.2785 12.3112C11.1953 12.3299 11.1081 12.3176 11.0333 12.2768C9.68894 11.7515 8.56207 10.7884 7.83574 9.54375C7.77379 9.46608 7.74447 9.36746 7.75395 9.26866C7.76344 9.16986 7.81098 9.07859 7.88658 9.01405C8.15122 8.75274 8.34553 8.42907 8.45153 8.073C8.47506 7.68024 8.38485 7.28902 8.19165 6.94599C8.04229 6.46507 7.75804 6.03684 7.37249 5.71191C7.17363 5.6227 6.95313 5.59279 6.73761 5.62579C6.52209 5.65878 6.32074 5.75328 6.15786 5.89787C5.87509 6.14122 5.65064 6.44473 5.50105 6.78606C5.35146 7.12739 5.28053 7.49784 5.2935 7.87014C5.29437 8.0792 5.32093 8.28738 5.37259 8.49C5.50377 8.97681 5.70551 9.44191 5.97143 9.87058C6.16328 10.199 6.37261 10.5168 6.59851 10.8229C7.33268 11.8282 8.25555 12.6817 9.31589 13.3361C9.84798 13.6687 10.4167 13.9391 11.0107 14.142C11.6278 14.421 12.3091 14.5281 12.9824 14.4519C13.3659 14.394 13.7294 14.2429 14.0407 14.012C14.352 13.7811 14.6016 13.4774 14.7676 13.1276C14.8651 12.9164 14.8947 12.6802 14.8523 12.4514C14.7506 11.9837 14.1236 11.7076 13.7394 11.4822Z" fill="white"/>
</svg>
