<svg width="21" height="21" viewBox="0 0 21 21" fill="none" xmlns="http://www.w3.org/2000/svg">
<path fill-rule="evenodd" clip-rule="evenodd" d="M0.0478516 9.75368C0.0478516 4.17784 4.41797 0.0478592 10.0539 0.0478592C15.6897 0.0478592 20.0599 4.18034 20.0599 9.75618C20.0599 15.332 15.6897 19.462 10.0539 19.462C9.04074 19.462 8.07016 19.3269 7.15711 19.0768C6.97951 19.0292 6.78939 19.0417 6.62179 19.1168L4.6356 19.9923C4.51565 20.0452 4.38453 20.0679 4.25377 20.0582C4.12301 20.0486 3.99663 20.007 3.88571 19.9371C3.77479 19.8672 3.68275 19.7711 3.61766 19.6573C3.55257 19.5435 3.51644 19.4154 3.51243 19.2844L3.4574 17.5033C3.45239 17.2832 3.35233 17.0781 3.18974 16.933C1.24357 15.1919 0.0478516 12.6704 0.0478516 9.75368ZM6.98451 7.93009L4.04525 12.5929C3.76258 13.0406 4.31291 13.5435 4.73316 13.2233L7.89005 10.8268C7.99393 10.7479 8.12067 10.705 8.2511 10.7046C8.38154 10.7041 8.50857 10.7461 8.61299 10.8243L10.9519 12.5779C11.1178 12.7025 11.3077 12.7913 11.5097 12.8388C11.7116 12.8863 11.9213 12.8914 12.1253 12.8538C12.3293 12.8162 12.5233 12.7367 12.6951 12.6203C12.8669 12.5039 13.0126 12.3532 13.1232 12.1776L16.065 7.51734C16.3451 7.06957 15.7948 6.56427 15.3745 6.88446L12.2176 9.28089C12.1138 9.35979 11.987 9.40271 11.8566 9.40316C11.7262 9.40361 11.5991 9.36157 11.4947 9.2834L9.15581 7.52984C8.98992 7.40525 8.79999 7.31641 8.59803 7.26893C8.39606 7.22144 8.18645 7.21634 7.98242 7.25395C7.77838 7.29156 7.58436 7.37106 7.4126 7.48744C7.24085 7.60381 7.09508 7.75453 6.98451 7.93009Z" fill="white"/>
</svg>
