<svg width="22" height="23" viewBox="0 0 22 23" fill="none" xmlns="http://www.w3.org/2000/svg">
<path d="M12.9432 6.5308C12.9432 8.21665 12.2706 9.83345 11.0732 11.0255C9.87583 12.2176 8.25185 12.8873 6.55853 12.8873C4.8652 12.8873 3.24123 12.2176 2.04386 11.0255C0.8465 9.83345 0.173828 8.21665 0.173828 6.5308C0.173828 4.84496 0.8465 3.22816 2.04386 2.03609C3.24123 0.844016 4.8652 0.174316 6.55853 0.174316C8.25185 0.174316 9.87583 0.844016 11.0732 2.03609C12.2706 3.22816 12.9432 4.84496 12.9432 6.5308Z" fill="white"/>
<path d="M21.8412 15.6592C21.8412 16.4943 21.676 17.3211 21.355 18.0926C21.034 18.8641 20.5636 19.5651 19.9705 20.1555C19.3774 20.746 18.6733 21.2143 17.8984 21.5339C17.1235 21.8534 16.293 22.0179 15.4543 22.0179C13.7604 22.0179 12.1358 21.348 10.9381 20.1555C9.74028 18.963 9.06738 17.3457 9.06738 15.6592C9.06738 13.9728 9.74028 12.3555 10.9381 11.163C12.1358 9.9705 13.7604 9.30058 15.4543 9.30058C16.293 9.30058 17.1235 9.46505 17.8984 9.7846C18.6733 10.1042 19.3774 10.5725 19.9705 11.163C20.5636 11.7534 21.034 12.4544 21.355 13.2259C21.676 13.9974 21.8412 14.8242 21.8412 15.6592Z" fill="white"/>
<path d="M21.1214 11.1434C21.1214 12.4656 20.8598 13.7747 20.3516 14.9962C19.8434 16.2177 19.0985 17.3275 18.1595 18.2624C17.2205 19.1973 16.1057 19.9389 14.8788 20.4448C13.6519 20.9508 12.3369 21.2112 11.0089 21.2112C9.68095 21.2112 8.36596 20.9508 7.13906 20.4448C5.91217 19.9389 4.79738 19.1973 3.85835 18.2624C2.91932 17.3275 2.17445 16.2177 1.66625 14.9962C1.15805 13.7747 0.896484 12.4656 0.896484 11.1434C0.896484 9.82133 1.15805 8.51217 1.66625 7.2907C2.17445 6.06923 2.91932 4.95937 3.85835 4.02449C4.79738 3.08962 5.91217 2.34804 7.13906 1.84209C8.36596 1.33614 9.68095 1.07573 11.0089 1.07573C12.3369 1.07573 13.6519 1.33614 14.8788 1.84209C16.1057 2.34804 17.2205 3.08962 18.1595 4.02449C19.0985 4.95937 19.8434 6.06923 20.3516 7.2907C20.8598 8.51217 21.1214 9.82133 21.1214 11.1434Z" fill="white"/>
<path fill-rule="evenodd" clip-rule="evenodd" d="M8.16499 10.7939C7.75633 10.5253 7.41532 10.166 7.16854 9.744C6.93029 9.2982 6.8127 8.79799 6.8274 8.29286C6.80934 7.6518 7.02836 7.02658 7.44262 6.53663C7.87313 6.04462 8.42645 5.67531 9.04626 5.46629C9.72038 5.22841 10.4306 5.10893 11.1456 5.11316C11.6133 5.10874 12.0806 5.14455 12.5422 5.22019C12.8726 5.27115 13.1971 5.35481 13.511 5.46993C13.7991 5.56737 14.0593 5.73328 14.269 5.95341C14.4236 6.13452 14.5068 6.36567 14.503 6.60362C14.5085 6.72723 14.4896 6.85072 14.4473 6.96704C14.4051 7.08335 14.3403 7.1902 14.2567 7.2815C14.1775 7.36563 14.0815 7.43208 13.9748 7.47651C13.8682 7.52093 13.7533 7.54231 13.6378 7.53925C13.4788 7.53794 13.322 7.50269 13.1778 7.43586C12.8225 7.27697 12.4564 7.14316 12.0823 7.03539C11.7379 6.94469 11.3829 6.90061 11.0268 6.90433C10.5626 6.88727 10.1034 7.0046 9.70449 7.24218C9.53614 7.34436 9.39834 7.48982 9.30551 7.66337C9.21268 7.83692 9.1682 8.03219 9.17674 8.22878C9.17429 8.48688 9.2726 8.73578 9.45082 8.92268C9.66259 9.14224 9.91286 9.32116 10.1892 9.45057C10.4988 9.60396 10.9604 9.80735 11.5742 10.0607C11.6422 10.0822 11.7084 10.1088 11.7725 10.1401C12.3714 10.3768 12.9456 10.6716 13.4869 11.0204C13.9144 11.2988 14.2748 11.6683 14.5424 12.1024C14.8058 12.5586 14.9378 13.0787 14.9236 13.6052C14.9457 14.2499 14.7608 14.8846 14.3959 15.4168C14.0243 15.9206 13.5102 16.3018 12.9198 16.5111C12.2083 16.7651 11.4564 16.8875 10.7009 16.8723C9.66283 16.9086 8.62968 16.7133 7.6766 16.3007C7.43295 16.1923 7.21932 16.0264 7.0541 15.8172C6.91692 15.6256 6.84581 15.3946 6.85145 15.159C6.84465 15.0348 6.86491 14.9106 6.91084 14.7949C6.95678 14.6793 7.02729 14.5749 7.11751 14.4892C7.30667 14.3237 7.55222 14.2372 7.80344 14.2474C8.08334 14.2512 8.35827 14.3219 8.60526 14.4535C8.91238 14.6069 9.15463 14.7219 9.332 14.7986C9.53457 14.8833 9.74438 14.9496 9.95888 14.9967C10.2234 15.0546 10.4936 15.0825 10.7644 15.0797C11.2432 15.1138 11.7197 14.9869 12.118 14.7192C12.2671 14.6027 12.3862 14.4524 12.4656 14.2807C12.5449 14.109 12.5822 13.9209 12.5743 13.7319C12.5747 13.464 12.4725 13.2061 12.2885 13.0111C12.0455 12.7604 11.7609 12.5535 11.4474 12.3995C11.0766 12.2043 10.5551 11.9665 9.88307 11.6859C9.282 11.4466 8.70643 11.1478 8.16499 10.7939Z" fill="#14274E"/>
</svg>
